<?xml version="1.0" encoding="UTF-8"?>
<svg version="1.1" xmlns="http://www.w3.org/2000/svg" width="483" height="430">
<path d="M0 0 C1.28821152 -0.00637985 2.57642303 -0.0127597 3.90367126 -0.01933289 C5.31151288 -0.02086154 6.71935501 -0.02197551 8.12719727 -0.02270508 C9.57064345 -0.02591852 11.0140893 -0.02928266 12.45753479 -0.03279114 C15.48292801 -0.03877846 18.50829268 -0.04063143 21.53369141 -0.04003906 C25.40859367 -0.03993742 29.2833128 -0.05359369 33.15817165 -0.07081127 C36.1393162 -0.08193418 39.12041649 -0.08395819 42.10157967 -0.08342934 C43.53010757 -0.08460886 44.95863663 -0.08902909 46.38714409 -0.0967617 C48.38567619 -0.10656764 50.38426201 -0.10241773 52.3828125 -0.09765625 C54.08799294 -0.09979378 54.08799294 -0.09979378 55.82762146 -0.10197449 C58.74313786 0.14416904 60.35350516 0.51402595 62.75610352 2.14526367 C65.29400923 5.95212224 65.59426726 8.75136169 64.75610352 13.14526367 C62.9938576 17.2862781 60.74080861 21.09343389 58.44360352 24.95776367 C57.8093042 26.05491699 57.17500488 27.15207031 56.52148438 28.2824707 C55.22836295 30.51552764 53.92801505 32.74441597 52.62036133 34.96899414 C50.93463405 37.84108842 49.27265307 40.72483814 47.62329102 43.61791992 C34.15025241 67.21583108 34.15025241 67.21583108 29.75610352 70.14526367 C26.50544405 70.6096436 23.84808149 70.22560476 20.75610352 69.14526367 C19.19018555 67.41650391 19.19018555 67.41650391 17.82641602 65.20385742 C17.31908936 64.38989502 16.8117627 63.57593262 16.2890625 62.73730469 C13.79602023 58.52188347 11.34050377 54.2912051 8.94360352 50.02026367 C5.33276325 43.63807821 1.68322159 37.29046661 -2.11889648 31.02026367 C-2.83437482 29.8292384 -3.54924234 28.63784594 -4.26342773 27.44604492 C-5.54331094 25.31290625 -6.83180113 23.1848977 -8.13061523 21.06323242 C-11.41453999 15.46754712 -13.27343762 11.66569083 -12.24389648 5.14526367 C-9.38909827 -0.15650445 -5.58847519 0.01875203 0 0 Z " fill="#0B1C40" transform="translate(231.243896484375,288.854736328125)"/>
<path d="M0 0 C1.26496307 -0.00960754 2.52992615 -0.01921509 3.83322144 -0.02911377 C5.21579813 -0.03396169 6.59837693 -0.03824053 7.98095703 -0.04199219 C9.39958701 -0.04774609 10.81821697 -0.0535038 12.23684692 -0.05926514 C15.21096152 -0.06976608 18.18504916 -0.07561471 21.15917969 -0.07910156 C24.96456243 -0.08458541 28.7695872 -0.10861451 32.57485771 -0.13707352 C35.50543246 -0.15572433 38.43592137 -0.16090678 41.36655045 -0.16243744 C42.76914553 -0.16545884 44.1717393 -0.17347011 45.57427597 -0.18662262 C47.53902828 -0.20373273 49.50392866 -0.19995088 51.46875 -0.1953125 C52.58555145 -0.19895813 53.70235291 -0.20260376 54.85299683 -0.20635986 C58.27737956 0.21161774 60.11579933 1.10479987 62.86376953 3.16113281 C65.27664201 6.78044153 65.42662408 7.88047582 64.86376953 12.16113281 C63.41016937 15.38089483 61.59214683 18.34529732 59.73876953 21.34863281 C58.77628752 22.94535908 57.8153624 24.54302478 56.85595703 26.14160156 C56.36240723 26.96007568 55.86885742 27.7785498 55.36035156 28.62182617 C53.30878937 32.10278838 51.39263068 35.65111061 49.47070312 39.20483398 C46.45780835 44.74769981 43.3553473 50.2385801 40.23876953 55.72363281 C39.91070312 56.31184814 39.58263672 56.90006348 39.24462891 57.50610352 C38.28160193 59.23152685 37.3033616 60.9484314 36.32470703 62.66503906 C35.47078369 64.17819702 35.47078369 64.17819702 34.59960938 65.72192383 C32.79601057 68.25634797 31.76056315 69.1521899 28.86376953 70.16113281 C24.87769524 70.76770934 23.3383885 70.48654907 19.98095703 68.18457031 C16.17616471 64.85699122 14.14479947 60.79554666 11.86376953 56.34863281 C10.91633626 54.56313688 9.96566065 52.77935866 9.01220703 50.99707031 C8.50915039 50.05444336 8.00609375 49.11181641 7.48779297 48.140625 C4.0493842 41.8323958 0.36572098 35.66408693 -3.27685547 29.47241211 C-4.38384245 27.58827052 -5.48782167 25.70235765 -6.58837891 23.81445312 C-7.60357476 22.07420887 -8.62739418 20.33896062 -9.66064453 18.609375 C-10.11922852 17.82336914 -10.5778125 17.03736328 -11.05029297 16.22753906 C-11.65671631 15.20382202 -11.65671631 15.20382202 -12.27539062 14.15942383 C-13.85022268 10.50372322 -13.18022715 7.94562078 -12.13623047 4.16113281 C-9.073406 -0.15466531 -4.93417808 0.03021007 0 0 Z " fill="#0B1E42" transform="translate(183.13623046875,204.8388671875)"/>
<path d="M0 0 C3.46976876 1.30330551 4.84607107 2.84033328 6.69921875 6.0078125 C7.18132812 6.82113037 7.6634375 7.63444824 8.16015625 8.47241211 C8.66417969 9.34776611 9.16820312 10.22312012 9.6875 11.125 C10.21859375 12.02935791 10.7496875 12.93371582 11.296875 13.86547852 C14.77688486 19.81451345 18.21078094 25.79301168 21.54321289 31.82617188 C23.70970242 35.74643936 25.95173298 39.60908345 28.2578125 43.44921875 C28.81533203 44.38967041 29.37285156 45.33012207 29.94726562 46.29907227 C31.04460014 48.1473911 32.15481503 49.98813874 33.27929688 51.82006836 C36.95797653 58.06442481 36.95797653 58.06442481 37.1484375 62.3046875 C35.66000705 65.79794264 33.9143126 67.56763305 31 70 C27.92002869 70.61473083 27.92002869 70.61473083 24.43725586 70.59936523 C22.47513405 70.60848183 22.47513405 70.60848183 20.47337341 70.61778259 C19.05385229 70.59887868 17.63434222 70.5791287 16.21484375 70.55859375 C14.75184043 70.55434044 13.28883035 70.55201472 11.82582092 70.55152893 C8.76499684 70.54537315 5.70490734 70.52272032 2.64428711 70.48706055 C-1.2754643 70.44174844 -5.19455192 70.42703186 -9.11454105 70.42332363 C-12.13348411 70.41889149 -15.15228843 70.4035821 -18.17117119 70.3844471 C-19.61642761 70.37558004 -21.06169874 70.36884271 -22.50697517 70.36428642 C-24.52693876 70.35522611 -26.54681806 70.33114255 -28.56665039 70.30639648 C-29.71516983 70.29575668 -30.86368927 70.28511688 -32.04701233 70.27415466 C-34.96042688 70.00367396 -36.59663617 69.62977837 -39 68 C-41.15788989 64.76316517 -42.30568015 62.79377142 -41.64453125 58.9140625 C-39.09375013 51.89642055 -34.9004045 45.50585923 -31.0625 39.1328125 C-28.72215415 35.2379876 -26.44479671 31.31072524 -24.1875 27.3671875 C-23.85772659 26.79127869 -23.52795319 26.21536987 -23.18818665 25.62200928 C-21.54387578 22.74943517 -19.90303996 19.87498078 -18.26635742 16.99804688 C-8.23947399 -0.49436844 -8.23947399 -0.49436844 0 0 Z " fill="#0C1E43" transform="translate(231,121)"/>
<path d="M0 0 C5.68487848 5.12522723 9.0417387 13.09987345 12.7265625 19.71826172 C14.75297002 23.34916753 16.80038737 26.96816384 18.84667969 30.58789062 C19.98762757 32.60743981 21.12631263 34.62826912 22.26269531 36.65039062 C24.58647347 40.77820844 26.90751412 44.89907837 29.390625 48.93359375 C30.02484375 49.96613281 30.6590625 50.99867188 31.3125 52.0625 C31.84488281 52.89910156 32.37726563 53.73570312 32.92578125 54.59765625 C34.55279429 58.23624904 34.50259389 61.49221834 33.25 65.25 C31.66748876 67.46551573 30.53987007 68.00678528 28 69 C25.04701233 69.26742554 25.04701233 69.26742554 21.56665039 69.29052734 C19.60925682 69.3096669 19.60925682 69.3096669 17.61231995 69.32919312 C16.19076689 69.3322505 14.76921184 69.33447841 13.34765625 69.3359375 C11.88561371 69.34236682 10.42357245 69.34909528 8.96153259 69.35610962 C5.89921079 69.36807457 2.83700173 69.37179119 -0.2253418 69.37060547 C-4.14405904 69.37040217 -8.06205195 69.39771824 -11.9805975 69.43214989 C-14.99955041 69.4544156 -18.01832881 69.45844315 -21.03735542 69.45738602 C-22.48182233 69.45974194 -23.92629404 69.46856513 -25.37067986 69.48405075 C-27.39277645 69.50370279 -29.41508614 69.4953522 -31.43725586 69.48583984 C-33.16122841 69.4901149 -33.16122841 69.4901149 -34.92002869 69.49447632 C-38.69240689 68.88883701 -40.33324096 67.69643627 -43 65 C-44.47235868 60.70243359 -44.61394143 58.5356923 -42.92773438 54.31787109 C-41.30878266 51.20018165 -39.56271922 48.19662314 -37.75 45.1875 C-37.11191406 44.09107178 -36.47382813 42.99464355 -35.81640625 41.86499023 C-34.51457783 39.63177633 -33.20404904 37.40361095 -31.88476562 35.18066406 C-29.68175438 31.46293991 -27.53018722 27.71747806 -25.38183594 23.96801758 C-23.64464927 20.94390092 -21.88714454 17.93198755 -20.125 14.92236328 C-19.11053834 13.18888431 -18.10179201 11.45206369 -17.09375 9.71484375 C-16.5678125 8.81894531 -16.041875 7.92304688 -15.5 7 C-15.0771875 6.278125 -14.654375 5.55625 -14.21875 4.8125 C-10.4456294 -0.79880755 -6.58221672 -1.89657092 0 0 Z " fill="#0C1D41" transform="translate(282,206)"/>
<path d="M0 0 C5.1833566 1.14033845 8.64488741 4.51895729 11.60888672 8.86157227 C13.01881135 11.31362611 14.33581114 13.79493754 15.625 16.3125 C16.58226036 18.1164552 17.5405887 19.91984409 18.5 21.72265625 C18.95375 22.5852002 19.4075 23.44774414 19.875 24.33642578 C21.38879251 27.18365661 22.9863375 29.97293975 24.625 32.75 C25.15222656 33.65363281 25.67945313 34.55726563 26.22265625 35.48828125 C27.79119 38.12612342 29.38807861 40.74172837 30.99609375 43.35546875 C32.01849893 45.04931637 33.04063355 46.74332733 34.0625 48.4375 C34.56007813 49.230354 35.05765625 50.02320801 35.5703125 50.84008789 C38.71682946 56.10135952 39.78044232 59.55201928 39.125 65.6875 C38.795 66.3475 38.465 67.0075 38.125 67.6875 C37.465 67.6875 36.805 67.6875 36.125 67.6875 C36.125 68.3475 36.125 69.0075 36.125 69.6875 C32.81312593 70.79145802 30.29435728 70.84137678 26.80517578 70.88037109 C24.84766891 70.90446548 24.84766891 70.90446548 22.85061646 70.92904663 C21.4238551 70.9405326 19.99708646 70.95114139 18.5703125 70.9609375 C17.49157679 70.96892302 17.49157679 70.96892302 16.39104843 70.97706985 C12.58574236 71.00376954 8.78046876 71.02315601 4.97509766 71.03759766 C1.82831817 71.05094595 -1.31781422 71.07881774 -4.46435547 71.11962891 C-8.26746974 71.1689517 -12.06999645 71.19371747 -15.8734169 71.20082474 C-17.32071475 71.20753467 -18.76799961 71.2227504 -20.21511459 71.24671555 C-22.24197427 71.27837141 -24.26928464 71.27540186 -26.29638672 71.27099609 C-28.02488358 71.28312637 -28.02488358 71.28312637 -29.78829956 71.29550171 C-33.85086534 70.49527928 -35.33463096 68.89169978 -37.875 65.6875 C-39.33570108 58.02711877 -35.70502472 52.82653412 -31.875 46.375 C-31.2550415 45.30282227 -30.63508301 44.23064453 -29.99633789 43.12597656 C-28.6670791 40.83514391 -27.33188585 38.54932271 -25.98486328 36.26904297 C-24.18507331 33.22106056 -22.40927692 30.15983508 -20.63998413 27.09407043 C-19.21794991 24.63315063 -17.78746492 22.17722994 -16.35424805 19.72280884 C-15.66525764 18.54204285 -14.97805223 17.36023331 -14.29272461 16.17733765 C-13.32681285 14.51461402 -12.34914483 12.85873711 -11.37109375 11.203125 C-10.81607178 10.25727539 -10.2610498 9.31142578 -9.68920898 8.33691406 C-7.04943296 4.48186771 -4.65700964 1.11363274 0 0 Z " fill="#0D1C3F" transform="translate(325.875,288.3125)"/>
<path d="M0 0 C1.28498383 -0.00960754 2.56996765 -0.01921509 3.89389038 -0.02911377 C5.29856183 -0.03396167 6.70323535 -0.03824052 8.10791016 -0.04199219 C9.54896038 -0.04774597 10.99001059 -0.05350367 12.43106079 -0.05926514 C15.45225378 -0.06976647 18.47342023 -0.07561485 21.49462891 -0.07910156 C25.36054334 -0.08458556 29.22610544 -0.10861485 33.09190941 -0.13707352 C36.06880714 -0.15572285 39.04562036 -0.1609067 42.02257156 -0.16243744 C43.44749503 -0.16545916 44.87241719 -0.17347151 46.29728317 -0.18662262 C48.29316965 -0.20372968 50.28920185 -0.19995132 52.28515625 -0.1953125 C53.4197226 -0.19895813 54.55428894 -0.20260376 55.72323608 -0.20635986 C59.14378808 0.2059512 61.0227817 1.11846328 63.77197266 3.16113281 C65.44142379 6.50003507 65.39976094 9.56958324 64.77197266 13.16113281 C62.99579555 17.34633457 60.7156545 21.19353138 58.39697266 25.09863281 C57.76154541 26.19876709 57.12611816 27.29890137 56.47143555 28.43237305 C54.58772429 31.68502049 52.68180122 34.92377164 50.77197266 38.16113281 C49.7771286 39.8712831 48.78350157 41.58214237 47.79150391 43.29394531 C44.245644 49.38875639 40.63172862 55.42845329 36.8684082 61.3918457 C35.92324567 62.91702782 35.02987102 64.47408186 34.14697266 66.03613281 C32.77197266 68.16113281 32.77197266 68.16113281 29.77197266 70.16113281 C26.54099411 70.62270118 23.83493411 70.28263165 20.77197266 69.16113281 C18.05268479 66.5940192 16.51720778 63.4399285 14.77197266 60.16113281 C14.10347419 58.97302873 13.43136055 57.78695415 12.75634766 56.60253906 C11.22237401 53.90333215 9.70539131 51.19544344 8.19775391 48.48144531 C5.76744128 44.12684693 3.24726852 39.82872525 0.70947266 35.53613281 C0.29552246 34.83045166 -0.11842773 34.12477051 -0.54492188 33.39770508 C-2.54178847 29.99565061 -4.56067624 26.61227263 -6.63818359 23.25878906 C-7.37656576 22.03879805 -8.11485204 20.818749 -8.85302734 19.59863281 C-9.50529297 18.54546875 -10.15755859 17.49230469 -10.82958984 16.40722656 C-12.61727535 12.25759903 -12.57871959 9.64999352 -12.22802734 5.16113281 C-9.37805391 -0.131675 -5.58070372 0.03363274 0 0 Z " fill="#0D1F45" transform="translate(133.22802734375,120.8388671875)"/>
<path d="M0 0 C1.28498383 -0.00960754 2.56996765 -0.01921509 3.89389038 -0.02911377 C5.29856183 -0.03396167 6.70323535 -0.03824052 8.10791016 -0.04199219 C9.54896038 -0.04774597 10.99001059 -0.05350367 12.43106079 -0.05926514 C15.45225378 -0.06976647 18.47342023 -0.07561485 21.49462891 -0.07910156 C25.36054334 -0.08458556 29.22610544 -0.10861485 33.09190941 -0.13707352 C36.06880714 -0.15572285 39.04562036 -0.1609067 42.02257156 -0.16243744 C43.44749503 -0.16545916 44.87241719 -0.17347151 46.29728317 -0.18662262 C48.29316965 -0.20372968 50.28920185 -0.19995132 52.28515625 -0.1953125 C53.4197226 -0.19895813 54.55428894 -0.20260376 55.72323608 -0.20635986 C59.14378808 0.2059512 61.0227817 1.11846328 63.77197266 3.16113281 C65.44142379 6.50003507 65.39976094 9.56958324 64.77197266 13.16113281 C62.99579555 17.34633457 60.7156545 21.19353138 58.39697266 25.09863281 C57.76154541 26.19876709 57.12611816 27.29890137 56.47143555 28.43237305 C54.58772429 31.68502049 52.68180122 34.92377164 50.77197266 38.16113281 C49.7771286 39.8712831 48.78350157 41.58214237 47.79150391 43.29394531 C44.2464562 49.38736035 40.6339189 55.42561788 36.8684082 61.38574219 C35.91521028 62.92919693 35.02509241 64.51126249 34.14697266 66.09863281 C32.77197266 68.16113281 32.77197266 68.16113281 29.77197266 69.16113281 C29.77197266 68.50113281 29.77197266 67.84113281 29.77197266 67.16113281 C30.43197266 67.16113281 31.09197266 67.16113281 31.77197266 67.16113281 C31.77197266 66.50113281 31.77197266 65.84113281 31.77197266 65.16113281 C32.43197266 65.16113281 33.09197266 65.16113281 33.77197266 65.16113281 C33.44197266 63.51113281 33.11197266 61.86113281 32.77197266 60.16113281 C33.37009766 59.81050781 33.96822266 59.45988281 34.58447266 59.09863281 C37.57662021 56.44844498 38.36734316 53.88340097 39.77197266 50.16113281 C40.43197266 50.16113281 41.09197266 50.16113281 41.77197266 50.16113281 C41.85447266 49.64550781 41.93697266 49.12988281 42.02197266 48.59863281 C42.91015635 45.71203582 44.31959575 43.42106093 45.85791016 40.83691406 C46.86854252 38.98408806 47.31608185 37.21264145 47.77197266 35.16113281 C49.77197266 33.16113281 49.77197266 33.16113281 51.77197266 32.16113281 C52.4863439 30.5143493 53.14534381 28.84326197 53.77197266 27.16113281 C54.56321766 25.44285159 55.3759618 23.73431381 56.20947266 22.03613281 C56.82628906 20.76382813 56.82628906 20.76382813 57.45556641 19.46582031 C58.70078979 17.28575564 60.0031231 15.90419739 61.77197266 14.16113281 C61.77197266 13.50113281 61.77197266 12.84113281 61.77197266 12.16113281 C62.43197266 12.16113281 63.09197266 12.16113281 63.77197266 12.16113281 C63.27697266 8.20113281 63.27697266 8.20113281 62.77197266 4.16113281 C59.4130258 3.04148386 56.85333117 3.02052997 53.31274414 3 C52.33667206 2.99255264 52.33667206 2.99255264 51.34088135 2.98495483 C49.19159892 2.97036648 47.04239017 2.96353869 44.89306641 2.95800781 C43.39998879 2.95225594 41.90691119 2.94649821 40.41383362 2.94073486 C37.28589534 2.93023598 34.15798271 2.92438527 31.0300293 2.92089844 C27.01585347 2.91539985 23.00201447 2.89133852 18.9879446 2.86292648 C15.90565485 2.84433904 12.82344712 2.83909672 9.74110603 2.83756256 C8.26067312 2.83452933 6.78024187 2.82647829 5.29986382 2.81337738 C3.23357993 2.79638876 1.16813133 2.79817813 -0.89819336 2.8046875 C-2.66333031 2.79921906 -2.66333031 2.79921906 -4.46412659 2.79364014 C-5.37621384 2.91491272 -6.28830109 3.0361853 -7.22802734 3.16113281 C-9.80494351 7.02650706 -9.81362159 8.54957809 -9.22802734 13.16113281 C-7.54107042 16.71098696 -5.64148417 20.05365083 -3.22802734 23.16113281 C-2.56802734 23.16113281 -1.90802734 23.16113281 -1.22802734 23.16113281 C-1.55802734 24.48113281 -1.88802734 25.80113281 -2.22802734 27.16113281 C-1.56802734 27.49113281 -0.90802734 27.82113281 -0.22802734 28.16113281 C-0.22802734 29.15113281 -0.22802734 30.14113281 -0.22802734 31.16113281 C0.43197266 31.16113281 1.09197266 31.16113281 1.77197266 31.16113281 C2.61016423 32.78363222 3.44238425 34.40921778 4.27197266 36.03613281 C4.73603516 36.94105469 5.20009766 37.84597656 5.67822266 38.77832031 C6.77197266 41.16113281 6.77197266 41.16113281 6.77197266 43.16113281 C7.43197266 43.16113281 8.09197266 43.16113281 8.77197266 43.16113281 C11.77197266 48.91113281 11.77197266 48.91113281 11.77197266 51.16113281 C12.43197266 51.16113281 13.09197266 51.16113281 13.77197266 51.16113281 C14.10197266 52.48113281 14.43197266 53.80113281 14.77197266 55.16113281 C13.78197266 55.65613281 13.78197266 55.65613281 12.77197266 56.16113281 C1.45545158 37.87525398 1.45545158 37.87525398 -2.74755859 29.87597656 C-3.90235201 27.75834747 -5.09988964 25.71593323 -6.36474609 23.66503906 C-6.73510986 23.05305664 -7.10547363 22.44107422 -7.48706055 21.81054688 C-8.5428412 20.07270097 -9.6154159 18.34509018 -10.68896484 16.61816406 C-12.60181507 12.32153348 -12.61361651 9.81748803 -12.22802734 5.16113281 C-9.37805391 -0.131675 -5.58070372 0.03363274 0 0 Z " fill="#00194B" transform="translate(133.22802734375,120.8388671875)"/>
<path d="M0 0 C4.69079801 0.79655061 7.11007434 3.12892181 10.3125 6.5625 C12.41226092 9.64111242 14.11542907 12.87341454 15.8125 16.1875 C16.76976036 17.9914552 17.7280887 19.79484409 18.6875 21.59765625 C19.14125 22.4602002 19.595 23.32274414 20.0625 24.21142578 C21.57629251 27.05865661 23.1738375 29.84793975 24.8125 32.625 C25.33972656 33.52863281 25.86695313 34.43226563 26.41015625 35.36328125 C27.97869 38.00112342 29.57557861 40.61672837 31.18359375 43.23046875 C32.20599893 44.92431637 33.22813355 46.61832733 34.25 48.3125 C34.74757813 49.105354 35.24515625 49.89820801 35.7578125 50.71508789 C38.90432946 55.97635952 39.96794232 59.42701928 39.3125 65.5625 C38.9825 66.2225 38.6525 66.8825 38.3125 67.5625 C37.6525 67.5625 36.9925 67.5625 36.3125 67.5625 C36.3125 68.2225 36.3125 68.8825 36.3125 69.5625 C32.98321876 70.67226041 30.51222643 70.68280895 27.00512695 70.67602539 C25.70400467 70.67594986 24.40288239 70.67587433 23.06233215 70.67579651 C21.6418148 70.67068985 20.22129783 70.66547385 18.80078125 70.66015625 C17.34775338 70.65829091 15.89472489 70.65686756 14.44169617 70.65586853 C10.61943828 70.65205246 6.79721845 70.64222993 2.97497559 70.63116455 C-0.92618291 70.62093087 -4.82734757 70.61636671 -8.72851562 70.61132812 C-16.38152776 70.60060686 -24.03450854 70.58354135 -31.6875 70.5625 C-27.84289466 68.444046 -24.64893718 68.31726677 -20.3359375 68.40234375 C-19.61199799 68.40790787 -18.88805847 68.41347198 -18.1421814 68.41920471 C-16.58819826 68.43161116 -15.03424429 68.44826291 -13.48034668 68.46875 C-9.41671098 68.52127137 -5.35297869 68.5408679 -1.2890625 68.55859375 C-0.06956909 68.56450027 -0.06956909 68.56450027 1.17456055 68.57052612 C12.23203562 68.6027794 23.2706097 68.12083119 34.3125 67.5625 C36.28334858 61.58524261 36.28334858 61.58524261 35.3125 55.5625 C34.85875 55.10875 34.405 54.655 33.9375 54.1875 C31.45569142 51.70569142 30.53124107 48.81247619 29.3125 45.5625 C29.3125 44.5725 29.3125 43.5825 29.3125 42.5625 C28.3225 42.2325 27.3325 41.9025 26.3125 41.5625 C25.61038106 39.91045544 24.94278587 38.24326231 24.3125 36.5625 C23.3225 36.0675 23.3225 36.0675 22.3125 35.5625 C21.41921138 33.77878586 20.59515811 31.95995149 19.8125 30.125 C18.08728972 25.99299495 18.08728972 25.99299495 15.3125 22.5625 C15.065 21.5415625 15.065 21.5415625 14.8125 20.5 C14.6475 19.860625 14.4825 19.22125 14.3125 18.5625 C13.6525 18.2325 12.9925 17.9025 12.3125 17.5625 C11.58169734 15.58503397 10.91828253 13.58177511 10.3125 11.5625 C9.8175 10.0775 9.8175 10.0775 9.3125 8.5625 C8.6525 8.5625 7.9925 8.5625 7.3125 8.5625 C7.3125 7.9025 7.3125 7.2425 7.3125 6.5625 C5.9925 7.5525 4.6725 8.5425 3.3125 9.5625 C3.3125 8.5725 3.3125 7.5825 3.3125 6.5625 C2.6525 6.2325 1.9925 5.9025 1.3125 5.5625 C1.6425 4.9025 1.9725 4.2425 2.3125 3.5625 C0.0025 3.5625 -2.3075 3.5625 -4.6875 3.5625 C-2.6875 0.5625 -2.6875 0.5625 0 0 Z " fill="#011948" transform="translate(325.6875,288.4375)"/>
<path d="M0 0 C1 2 1 2 0.6875 4.0625 C0 6 0 6 -2 7 C-2.72693904 8.97888961 -3.39816251 10.97954558 -4 13 C-4.66 13 -5.32 13 -6 13 C-5.896875 13.9075 -5.79375 14.815 -5.6875 15.75 C-6 19 -6 19 -8.375 21 C-9.24125 21.66 -10.1075 22.32 -11 23 C-12.20049407 26.10007201 -12.20049407 26.10007201 -13 29 C-13.66 29.33 -14.32 29.66 -15 30 C-15.72693904 31.97888961 -16.39816251 33.97954558 -17 36 C-17.66 36 -18.32 36 -19 36 C-19.66 38.31 -20.32 40.62 -21 43 C-21.66 43 -22.32 43 -23 43 C-24.92205381 47.58335908 -26.45730076 52.27934033 -28 57 C-27.34 57 -26.68 57 -26 57 C-26 57.66 -26 58.32 -26 59 C-22.16917833 59.88739248 -18.57768307 60.15021286 -14.64916992 60.20532227 C-13.3882402 60.22526749 -12.12731049 60.24521271 -10.82817078 60.26576233 C-9.46227133 60.28274268 -8.09637062 60.29962163 -6.73046875 60.31640625 C-5.32513341 60.33699474 -3.919804 60.3579917 -2.51448059 60.37937927 C1.17287373 60.43440435 4.86028212 60.48389933 8.54772949 60.53222656 C12.31507136 60.58258504 16.08233534 60.638196 19.84960938 60.69335938 C27.23300683 60.80070141 34.61646934 60.90219888 42 61 C42.33 61.66 42.66 62.32 43 63 C34.46376552 63.04634803 25.92758365 63.08188171 17.39125443 63.10362434 C13.42745773 63.1140599 9.46374714 63.12821492 5.5 63.15087891 C1.67449853 63.17261545 -2.15092012 63.18457034 -5.97647858 63.18975449 C-7.43571527 63.19344879 -8.89494744 63.20066283 -10.35414886 63.21146011 C-12.39863365 63.225986 -14.44277657 63.22797751 -16.48730469 63.22705078 C-17.65090515 63.231492 -18.81450562 63.23593323 -20.0133667 63.24050903 C-22.96348034 63.00294087 -24.57591117 62.65557508 -27 61 C-29.15788989 57.76316517 -30.30568015 55.79377142 -29.64453125 51.9140625 C-27.09688274 44.90503891 -22.90999204 38.52238401 -19.078125 32.15625 C-16.69004776 28.18146372 -14.35769298 24.17630273 -12.046875 20.15625 C-11.70763504 19.56614136 -11.36839508 18.97603271 -11.01887512 18.36804199 C-9.64994681 15.98509496 -8.28215904 13.60149833 -6.91586304 11.21704102 C-5.95437595 9.53975122 -4.99090223 7.8636007 -4.02734375 6.1875 C-3.46781006 5.21167969 -2.90827637 4.23585937 -2.33178711 3.23046875 C-1 1 -1 1 0 0 Z " fill="#002356" transform="translate(219,128)"/>
<path d="M0 0 C8.25817754 -0.06957765 16.51623215 -0.12285044 24.77463055 -0.15543652 C28.60954343 -0.17107795 32.44425545 -0.19228805 36.27905273 -0.22631836 C39.98137696 -0.25896667 43.68350825 -0.27686447 47.38596535 -0.28463173 C48.79694467 -0.29016547 50.20791369 -0.30097164 51.61881065 -0.31719017 C53.59822627 -0.33903449 55.57783693 -0.340226 57.55737305 -0.34057617 C58.68322311 -0.34723801 59.80907318 -0.35389984 60.96903992 -0.36076355 C64.4096145 0.04875484 66.24231841 0.93240625 69 3 C71.41287248 6.61930872 71.56285455 7.71934301 71 12 C69.54631327 15.21995377 67.72718871 18.18324217 65.875 21.1875 C64.85968983 22.88352396 63.84536055 24.58013553 62.83203125 26.27734375 C62.09654053 27.49719971 62.09654053 27.49719971 61.34619141 28.74169922 C59.19285114 32.354031 57.20748591 36.05163488 55.21484375 39.75390625 C53.53055967 42.8679363 51.77108235 45.93466516 50 49 C49.375 47.125 49.375 47.125 49 45 C49.66 44.34 50.32 43.68 51 43 C51.80255567 40.98310618 52.45646489 38.94104628 53.12109375 36.875 C54 35 54 35 57 33 C57.73766108 31.39055764 58.46440518 29.77460483 59.1171875 28.12890625 C60.13673615 25.67026017 61.30256321 23.31444788 62.5 20.9375 C62.92539063 20.08800781 63.35078125 19.23851562 63.7890625 18.36328125 C64.77944753 16.43043305 65.82027516 14.52350472 66.875 12.625 C68.21936487 10.10495398 68.21936487 10.10495398 67.6875 7.625 C67.460625 7.08875 67.23375 6.5525 67 6 C66.34 6.33 65.68 6.66 65 7 C64.34 5.68 63.68 4.36 63 3 C62.29922333 3.00444122 61.59844666 3.00888245 60.87643433 3.01345825 C54.25605685 3.05361588 47.63571362 3.08402542 41.01524162 3.10362434 C37.61199603 3.11403924 34.2088515 3.12815619 30.80566406 3.15087891 C26.88868439 3.176867 22.97174493 3.18649178 19.0546875 3.1953125 C17.83884979 3.20563507 16.62301208 3.21595764 15.37033081 3.22659302 C14.22960114 3.22674408 13.08887146 3.22689514 11.91357422 3.22705078 C10.91429901 3.231492 9.9150238 3.23593323 8.88546753 3.24050903 C5.67436574 2.97285778 3.00830533 2.12743827 0 1 C0 0.67 0 0.34 0 0 Z " fill="#001A49" transform="translate(177,205)"/>
<path d="M0 0 C0.66 0 1.32 0 2 0 C1.21769326 3.91153372 -0.2470538 7.42668659 -2 11 C-2.99 11.33 -3.98 11.66 -5 12 C-5.165 13.258125 -5.33 14.51625 -5.5 15.8125 C-5.5928125 16.52019531 -5.685625 17.22789062 -5.78125 17.95703125 C-6.053233 20.15471706 -6.053233 20.15471706 -6 23 C-2.40492528 24.12048646 0.94504395 24.12047214 4.69628906 24.11352539 C5.69202942 24.11374443 5.69202942 24.11374443 6.70788574 24.1139679 C8.8938325 24.11327332 11.07969319 24.10550231 13.265625 24.09765625 C14.78448439 24.09579045 16.30334438 24.09436731 17.82220459 24.09336853 C21.81377839 24.0895561 25.80531562 24.0797367 29.796875 24.06866455 C33.8723908 24.05842303 37.94791253 24.05386504 42.0234375 24.04882812 C50.01564175 24.03811327 58.00781632 24.02105216 66 24 C64.89498901 25.4747467 64.89498901 25.4747467 63 27 C60.16726685 27.38768005 60.16726685 27.38768005 56.68017578 27.40405273 C54.72266891 27.42307899 54.72266891 27.42307899 52.72561646 27.44248962 C51.29884686 27.4404379 49.87207836 27.43744964 48.4453125 27.43359375 C46.98183957 27.43815493 45.51836879 27.44346031 44.05490112 27.44947815 C40.98654485 27.45841578 37.91844873 27.45597987 34.85009766 27.44604492 C30.92346352 27.43456829 26.99773042 27.45474212 23.07121468 27.48396206 C20.04794636 27.50233776 17.02489327 27.50202872 14.0015831 27.49632454 C12.5543377 27.49617141 11.10707763 27.50220862 9.65988541 27.51461601 C7.63284509 27.52954281 5.60565669 27.51621022 3.57861328 27.50170898 C2.42628204 27.50154282 1.27395081 27.50137665 0.08670044 27.50120544 C-3.69250417 26.88755408 -5.34206601 25.72017844 -8 23 C-9.29643224 18.34724872 -9.5752313 15.51854862 -7.3828125 11.19140625 C-6.65157072 9.96873854 -5.89846083 8.7589068 -5.125 7.5625 C-4.74730469 6.93923828 -4.36960938 6.31597656 -3.98046875 5.67382812 C-1.31473214 1.31473214 -1.31473214 1.31473214 0 0 Z " fill="#002151" transform="translate(247,248)"/>
<path d="M0 0 C0.33 0 0.66 0 1 0 C1.3125 2.625 1.3125 2.625 1 6 C-0.12552856 7.39035881 -1.26436041 8.77354462 -2.48828125 10.078125 C-5.74868517 14.22313464 -7.76291676 19.24908096 -10 24 C-10.66 24 -11.32 24 -12 24 C-12.2475 24.639375 -12.495 25.27875 -12.75 25.9375 C-14.40811572 29.99988351 -16.2035584 33.99724906 -18 38 C-18.66 38 -19.32 38 -20 38 C-20.0825 38.70125 -20.165 39.4025 -20.25 40.125 C-21.18009005 43.6903452 -22.76686369 46.09015572 -25 49 C-25.66 49 -26.32 49 -27 49 C-26.66226562 49.69480469 -26.32453125 50.38960938 -25.9765625 51.10546875 C-24.83732834 54.48215879 -24.9875681 56.78686975 -25.375 60.3125 C-25.48585938 61.38113281 -25.59671875 62.44976562 -25.7109375 63.55078125 C-25.80632812 64.35902344 -25.90171875 65.16726563 -26 66 C-29.875 64.25 -29.875 64.25 -31 62 C-32.00352532 54.15995843 -28.93235023 49.3133556 -25 42.6875 C-24.38294189 41.61749756 -23.76588379 40.54749512 -23.13012695 39.44506836 C-21.4591611 36.55965162 -19.77269916 33.68480269 -18.07427979 30.81555176 C-16.97425568 28.95649164 -15.87805616 27.095221 -14.78271484 25.23339844 C-10.66782546 18.24288154 -6.5284071 11.26766523 -2.36010742 4.30883789 C-1.52890804 2.897843 -0.73236589 1.46473178 0 0 Z " fill="#021A4A" transform="translate(319,292)"/>
<path d="M0 0 C1.28828705 -0.00637985 2.5765741 -0.0127597 3.90390015 -0.01933289 C5.31695519 -0.02086165 6.73001073 -0.02197556 8.14306641 -0.02270508 C9.58794183 -0.02591755 11.03281692 -0.02928162 12.47769165 -0.03279114 C15.50906122 -0.03878427 18.54040227 -0.04063088 21.57177734 -0.04003906 C25.45455536 -0.03993751 29.33715024 -0.05358196 33.21988487 -0.07081127 C36.20532062 -0.08193568 39.19071218 -0.08395812 42.17616653 -0.08342934 C43.60748551 -0.08460909 45.03880564 -0.0890306 46.47010422 -0.0967617 C48.47353508 -0.10656853 50.47701954 -0.1024175 52.48046875 -0.09765625 C54.19017349 -0.09979378 54.19017349 -0.09979378 55.93441772 -0.10197449 C58.79550751 0.13902029 60.44910499 0.6560353 62.86962891 2.14526367 C62.53962891 3.13526367 62.20962891 4.12526367 61.86962891 5.14526367 C60.87962891 4.48526367 59.88962891 3.82526367 58.86962891 3.14526367 C56.0466682 2.84722504 56.0466682 2.84722504 52.80932617 2.90234375 C51.56115616 2.89926712 50.31298615 2.89619049 49.0269928 2.89302063 C47.66333839 2.89991958 46.29968579 2.90718664 44.93603516 2.91479492 C43.53743024 2.91598736 42.13882452 2.91643975 40.74021912 2.91618347 C37.80893947 2.91774749 34.87778209 2.92602966 31.9465332 2.93945312 C28.19274122 2.95642711 24.43908378 2.96026781 20.68525791 2.95950794 C17.79675517 2.95978018 14.90828172 2.96527024 12.01978874 2.97250938 C10.63592691 2.97568755 9.25206177 2.97766147 7.86819649 2.97840309 C5.93189422 2.98057655 3.99560449 2.99012791 2.05932617 3 C0.958069 3.0038118 -0.14318817 3.0076236 -1.27781677 3.0115509 C-3.73786972 3.12686527 -5.78545099 3.43164441 -8.13037109 4.14526367 C-8.13037109 3.15526367 -8.13037109 2.16526367 -8.13037109 1.14526367 C-5.35921501 -0.24031437 -3.10094679 0.01038487 0 0 Z " fill="#002152" transform="translate(231.13037109375,288.854736328125)"/>
<path d="M0 0 C2.97578554 3.72939357 5.35663479 7.76022385 7.75 11.875 C8.38615234 12.91720703 8.38615234 12.91720703 9.03515625 13.98046875 C10.95936774 17.30866517 11.99689641 19.35290069 12.015625 23.2578125 C10.81412094 26.50187346 9.705847 27.85204938 7 30 C4.08929443 30.4430542 4.08929443 30.4430542 0.67089844 30.36230469 C-0.61012756 30.34198181 -1.89115356 30.32165894 -3.21099854 30.30072021 C-4.6042207 30.25820679 -5.99742933 30.21524794 -7.390625 30.171875 C-8.81976786 30.14196448 -10.2489494 30.11385218 -11.67816162 30.08746338 C-15.43356215 30.0132992 -19.1879401 29.91475013 -22.94262695 29.81109619 C-26.77653679 29.70957932 -30.61091147 29.63115515 -34.4453125 29.55078125 C-41.96418656 29.38977369 -49.48213004 29.20299987 -57 29 C-57 28.67 -57 28.34 -57 28 C-35.22 27.67 -13.44 27.34 9 27 C8.24522038 18.50597754 8.24522038 18.50597754 4.5 12 C3.8709375 11.071875 3.241875 10.14375 2.59375 9.1875 C1.18017007 7.12846207 1.18017007 7.12846207 0 6 C-0.04080783 4.00041636 -0.04254356 1.99954746 0 0 Z " fill="#021C4A" transform="translate(256,160)"/>
<path d="M0 0 C0.99 0.33 1.98 0.66 3 1 C3 2.32 3 3.64 3 5 C3.61875 5.226875 4.2375 5.45375 4.875 5.6875 C7.68389189 7.42240381 7.94536381 8.90640051 9 12 C9.515625 13.03125 10.03125 14.0625 10.5625 15.125 C12 18 12 18 13 21 C16.3 21 19.6 21 23 21 C23.33 20.01 23.66 19.02 24 18 C24.99 18 25.98 18 27 18 C27 16.02 27 14.04 27 12 C27.66 11.67 28.32 11.34 29 11 C29.33 10.01 29.66 9.02 30 8 C30.99 8 31.98 8 33 8 C33 7.34 33 6.68 33 6 C33.66 6.33 34.32 6.66 35 7 C33.59659 9.63289312 32.17832006 12.25566697 30.75 14.875 C30.35425781 15.62136719 29.95851562 16.36773437 29.55078125 17.13671875 C29.15761719 17.85214844 28.76445312 18.56757813 28.359375 19.3046875 C28.00327148 19.96452637 27.64716797 20.62436523 27.28027344 21.30419922 C25.07704956 24.22250453 22.65622375 24.90013986 19.125 25.4375 C15.0001177 24.86001648 12.76702741 22.95912214 10 20 C7.97535175 17.05489891 6.2932859 13.97014688 4.625 10.8125 C3.95017578 9.58370117 3.95017578 9.58370117 3.26171875 8.33007812 C0 2.30729958 0 2.30729958 0 0 Z " fill="#011A4B" transform="translate(190,250)"/>
<path d="M0 0 C1.12991523 2.77078778 1.0849231 3.79737279 -0.09228516 6.60620117 C-0.65222168 7.57533447 -1.2121582 8.54446777 -1.7890625 9.54296875 C-2.70751953 11.15461914 -2.70751953 11.15461914 -3.64453125 12.79882812 C-4.29808594 13.91708984 -4.95164062 15.03535156 -5.625 16.1875 C-6.25535156 17.28642578 -6.88570313 18.38535156 -7.53515625 19.51757812 C-8.77194596 21.67360344 -10.01304782 23.82716177 -11.25878906 25.97802734 C-13.55291397 29.95961429 -15.78674703 33.97301925 -18 38 C-18.99 37.67 -19.98 37.34 -21 37 C-21.33 36.34 -21.66 35.68 -22 35 C-20.02 34.505 -20.02 34.505 -18 34 C-17.8865625 33.4225 -17.773125 32.845 -17.65625 32.25 C-16.7339016 29.08766265 -14.9800459 26.71448692 -13.15625 24 C-11.99322455 21.9882803 -11.44567148 20.268873 -11 18 C-10.34 18 -9.68 18 -9 18 C-8.87625 17.38125 -8.7525 16.7625 -8.625 16.125 C-8 14 -8 14 -6 12 C-6 10.68 -6 9.36 -6 8 C-5.01 8 -4.02 8 -3 8 C-3 6.68 -3 5.36 -3 4 C-2.34 4 -1.68 4 -1 4 C-0.67 2.68 -0.34 1.36 0 0 Z " fill="#011444" transform="translate(295,298)"/>
<path d="M0 0 C4.07748202 3.73750298 6.45133307 8.56529872 9.1875 13.3125 C9.74630859 14.25029297 10.30511719 15.18808594 10.88085938 16.15429688 C11.40873047 17.06888672 11.93660156 17.98347656 12.48046875 18.92578125 C12.96410889 19.75505127 13.44774902 20.58432129 13.94604492 21.4387207 C15.20369776 24.49501813 15.2907721 26.72295035 15 30 C13.5 32.375 13.5 32.375 12 34 C10.875 29.25 10.875 29.25 12 27 C10.60930698 21.90079227 8.78068913 16.78068913 5 13 C4.29289322 11.35008418 3.62056011 9.68437744 3 8 C2.01 8.495 2.01 8.495 1 9 C-0.41377341 6.36095629 -1.37240135 3.92879371 -2 1 C-1.34 0.67 -0.68 0.34 0 0 Z " fill="#011A49" transform="translate(301,239)"/>
<path d="M0 0 C5.71662676 5.23313096 8.76491688 13.11684443 12 20 C11.34 20.66 10.68 21.32 10 22 C9.73445313 21.39671875 9.46890625 20.7934375 9.1953125 20.171875 C8.66550781 18.97304687 8.66550781 18.97304687 8.125 17.75 C7.77695312 16.96109375 7.42890625 16.1721875 7.0703125 15.359375 C6.71710938 14.58078125 6.36390625 13.8021875 6 13 C5.68804687 12.26265625 5.37609375 11.5253125 5.0546875 10.765625 C4.05490517 8.65592727 4.05490517 8.65592727 1 8 C0.29788106 6.34795544 -0.36971413 4.68076231 -1 3 C-3.88879693 1.55560153 -5.80587702 1.5826774 -9 2 C-11.17433081 4.39333905 -11.17433081 4.39333905 -12.75 7.5 C-13.79133226 9.3575116 -14.86506984 11.19815212 -16 13 C-16.66 13 -17.32 13 -18 13 C-16.19700111 7.89150313 -13.88287117 3.57754071 -9.6875 0.0625 C-5.84992379 -1.45468129 -3.92603569 -1.30867856 0 0 Z " fill="#001B4E" transform="translate(282,206)"/>
<path d="M0 0 C0.99 0.33 1.98 0.66 3 1 C2.01 1.66 1.02 2.32 0 3 C-1.15317663 5.97903963 -1.0448029 6.86559131 0 10 C-0.33 10.66 -0.66 11.32 -1 12 C-0.34 12.33 0.32 12.66 1 13 C1.73075648 15.3140622 2.40138258 17.64828869 3 20 C3.66 20 4.32 20 5 20 C6.25664978 22.90600261 7 24.79604584 7 28 C7.99 28.33 8.98 28.66 10 29 C10 30.65 10 32.3 10 34 C6.3188433 29.69813304 3.49511658 25.07962039 0.6875 20.1875 C0.22021484 19.41857422 -0.24707031 18.64964844 -0.72851562 17.85742188 C-3.85987278 12.37639052 -4.54696056 9.16748749 -3 3 C-1.4375 1 -1.4375 1 0 0 Z " fill="#011B4B" transform="translate(174,206)"/>
<path d="M0 0 C3.7294137 4.30050722 6.35575319 8.96633831 9.0625 13.9375 C9.49626953 14.72318359 9.93003906 15.50886719 10.37695312 16.31835938 C12.67733759 20.5024681 14.90004992 24.71059377 17 29 C14.69 28.67 12.38 28.34 10 28 C10.226875 27.278125 10.45375 26.55625 10.6875 25.8125 C11.0948724 22.14614844 10.17446082 20.9242749 8 18 C7.29875 17.34 6.5975 16.68 5.875 16 C3.66622799 13.64397652 3.4938888 12.12796242 3 9 C2.34 8.34 1.68 7.68 1 7 C-0.1875 4.5 -0.1875 4.5 -1 2 C-0.67 1.34 -0.34 0.68 0 0 Z " fill="#011B48" transform="translate(239,131)"/>
<path d="M0 0 C0.66 0.33 1.32 0.66 2 1 C0.59410779 3.61051353 -0.82397189 6.21301615 -2.25 8.8125 C-2.64574219 9.55048828 -3.04148437 10.28847656 -3.44921875 11.04882812 C-7.39575195 18.19787598 -7.39575195 18.19787598 -11 20 C-14.16471672 20.40673296 -16.98292467 20.02968075 -20 19 C-22.5625 15.9375 -22.5625 15.9375 -24 13 C-23.34 12.67 -22.68 12.34 -22 12 C-22 12.66 -22 13.32 -22 14 C-21.34 14 -20.68 14 -20 14 C-19.01 15.485 -19.01 15.485 -18 17 C-14.72076305 18.17081155 -14.72076305 18.17081155 -11 17 C-8.17571313 13.61085575 -6.13303985 9.84897538 -4 6 C-3.20334795 4.76050314 -2.39462936 3.52846368 -1.5625 2.3125 C-1.046875 1.549375 -0.53125 0.78625 0 0 Z " fill="#01174C" transform="translate(272,339)"/>
<path d="M0 0 C1.46507646 2.93015292 1.0213589 5.67768231 0.9375 8.90625 C0.85499134 11.06025522 0.85499134 11.06025522 2 13 C4.01669827 14.13350534 4.01669827 14.13350534 6 15 C5.67 15.33 5.34 15.66 5 16 C5.94945748 18.44146208 6.8984445 20.80817295 8.125 23.125 C9 25 9 25 9 28 C9.66 28 10.32 28 11 28 C11.33 29.98 11.66 31.96 12 34 C8.31635325 29.70528101 5.53346387 25.08688189 2.75 20.1875 C2.06164062 19.03411133 2.06164062 19.03411133 1.359375 17.85742188 C-1.61594442 12.61076486 -2.70481721 9.03662887 -2 3 C-1.34 2.01 -0.68 1.02 0 0 Z " fill="#01184B" transform="translate(221,291)"/>
<path d="M0 0 C0.66 0.33 1.32 0.66 2 1 C1.566875 1.77923828 1.566875 1.77923828 1.125 2.57421875 C-1.76732832 7.96165468 -1.76732832 7.96165468 -2 14 C-2.61359375 14.06058594 -3.2271875 14.12117187 -3.859375 14.18359375 C-6.22179047 14.8211165 -6.22179047 14.8211165 -7.265625 17.28515625 C-7.75289062 18.65994141 -7.75289062 18.65994141 -8.25 20.0625 C-8.58515625 20.98160156 -8.9203125 21.90070313 -9.265625 22.84765625 C-9.50796875 23.55792969 -9.7503125 24.26820313 -10 25 C-11.32 25 -12.64 25 -14 25 C-12.68071914 21.48283007 -11.12651609 18.34691482 -9.1796875 15.13671875 C-8.37724609 13.80737305 -8.37724609 13.80737305 -7.55859375 12.45117188 C-6.72521484 11.0831543 -6.72521484 11.0831543 -5.875 9.6875 C-5.31167969 8.75615234 -4.74835938 7.82480469 -4.16796875 6.86523438 C-2.7819554 4.57478858 -1.39254372 2.28647924 0 0 Z " fill="#021C4D" transform="translate(263,220)"/>
<path d="M0 0 C3.73044765 1.24348255 4.79540326 2.80713575 7 6 C7 6.99 7 7.98 7 9 C9.31 9.33 11.62 9.66 14 10 C14.33 10.99 14.66 11.98 15 13 C11.84984621 13.054313 9.89815192 13.07705107 7 12 C3.71743601 8.47946762 1.51688373 4.55065118 0 0 Z " fill="#011D4C" transform="translate(147,178)"/>
<path d="M0 0 C3.01518536 0.94762969 3.90317952 1.86979314 5.8125 4.4375 C7 7 7 7 6 10 C5.72027344 9.4946875 5.44054687 8.989375 5.15234375 8.46875 C3.89467618 6.43060063 2.68684874 4.70375951 1 3 C-2.5 2.08333333 -2.5 2.08333333 -6 3 C-8.90809543 4.85716187 -8.90809543 4.85716187 -11 7 C-8.9107963 0.89309688 -6.41975547 -0.52406167 0 0 Z " fill="#00184A" transform="translate(231,121)"/>
<path d="M0 0 C1.5 1.125 1.5 1.125 3 3 C3.45185216 6.53950857 3.42109443 8.33326715 1.5 11.375 C1.005 11.91125 0.51 12.4475 0 13 C-1.125 8.25 -1.125 8.25 0 6 C0.039992 4.00039988 0.04346799 1.99952758 0 0 Z " fill="#02133F" transform="translate(313,260)"/>
<path d="M0 0 C2.51083114 1.25541557 2.87125446 2.50063488 4 5 C4.66 5 5.32 5 6 5 C6 7.64 6 10.28 6 13 C2.6497537 9.18765077 0.83025211 5.66714289 -1 1 C-0.67 0.67 -0.34 0.34 0 0 Z " fill="#011B4A" transform="translate(238,331)"/>
<path d="M0 0 C0.66 0 1.32 0 2 0 C2 0.99 2 1.98 2 3 C1.34 3 0.68 3 0 3 C0 5.64 0 8.28 0 11 C-0.66 11 -1.32 11 -2 11 C-2.25 3.375 -2.25 3.375 0 0 Z " fill="#011241" transform="translate(290,343)"/>
<path d="M0 0 C1.859375 0.21484375 1.859375 0.21484375 4 1 C5.265625 3.06640625 5.265625 3.06640625 6.25 5.5625 C6.58515625 6.38878906 6.9203125 7.21507812 7.265625 8.06640625 C7.50796875 8.70449219 7.7503125 9.34257812 8 10 C7.34 10 6.68 10 6 10 C6 9.34 6 8.68 6 8 C5.34 7.67 4.68 7.34 4 7 C2.51685009 4.7427974 1.29481183 2.3738217 0 0 Z " fill="#001447" transform="translate(293,228)"/>
<path d="M0 0 C3.125 -0.1875 3.125 -0.1875 6 0 C5.67 0.99 5.34 1.98 5 3 C2.69 3 0.38 3 -2 3 C-1.34 2.01 -0.68 1.02 0 0 Z " fill="#00204E" transform="translate(323,289)"/>
</svg>
